<?xml version="1.0" encoding="UTF-8"?>
<svg width="512" height="512" viewBox="0 0 512 512" fill="none" xmlns="http://www.w3.org/2000/svg">
  <rect width="512" height="512" rx="100" fill="#646CFF"/>
  <path d="M256 128C199.4 128 152 175.4 152 232C152 288.6 199.4 336 256 336C312.6 336 360 288.6 360 232C360 175.4 312.6 128 256 128ZM256 304C217.4 304 184 270.6 184 232C184 193.4 217.4 160 256 160C294.6 160 328 193.4 328 232C328 270.6 294.6 304 256 304Z" fill="white"/>
  <path d="M256 352C185.3 352 128 409.3 128 480H160C160 427 203 384 256 384C309 384 352 427 352 480H384C384 409.3 326.7 352 256 352Z" fill="white"/>
  <path d="M256 112C269.3 112 280 101.3 280 88V40C280 26.7 269.3 16 256 16C242.7 16 232 26.7 232 40V88C232 101.3 242.7 112 256 112Z" fill="white"/>
  <path d="M384 200C397.3 200 408 189.3 408 176V128C408 114.7 397.3 104 384 104C370.7 104 360 114.7 360 128V176C360 189.3 370.7 200 384 200Z" fill="white"/>
  <path d="M128 200C141.3 200 152 189.3 152 176V128C152 114.7 141.3 104 128 104C114.7 104 104 114.7 104 128V176C104 189.3 114.7 200 128 200Z" fill="white"/>
</svg>